<?xml version="1.0" encoding="UTF-8"?>
<svg xmlns="http://www.w3.org/2000/svg" viewBox="0 0 1920 1080">
  <defs>
    <style>
      .cls-1 {
        fill: #1a3638;
      }

      .cls-1, .cls-2, .cls-3, .cls-4 {
        stroke-width: 0px;
      }

      .cls-5 {
        fill: none;
        stroke: #40bdea;
        stroke-linecap: round;
        stroke-miterlimit: 10;
        stroke-width: 10px;
      }

      .cls-2 {
        fill: #254b9c;
      }

      .cls-3 {
        fill: #40bdea;
      }

      .cls-4 {
        fill: #0c8a83;
      }
    </style>
  </defs>
  <g id="Layer_1" data-name="Layer 1">
    <circle class="cls-4" cx="331" cy="955" r="199"/>
    <circle class="cls-4" cx="1558" cy="901" r="199"/>
    <circle class="cls-4" cx="1774.64" cy="246.85" r="119.36"/>
    <circle class="cls-4" cx="960.29" cy="955.49" r="119.36"/>
    <circle class="cls-4" cx="117.52" cy="606.55" r="61.51"/>
    <circle class="cls-4" cx="873.59" cy="353.53" r="61.51"/>
  </g>
  <g id="Layer_2" data-name="Layer 2">
    <ellipse class="cls-4" cx="1866.5" cy="778.5" rx="71.5" ry="169.5" transform="translate(116.07 1791.35) rotate(-52.7)"/>
    <ellipse class="cls-4" cx="1881.61" cy="1141.21" rx="237.48" ry="169.5" transform="translate(-59.48 104.39) rotate(-3.13)"/>
    <ellipse class="cls-3" cx="1757" cy="901" rx="169" ry="161"/>
    <ellipse class="cls-4" cx="1687.4" cy="835.5" rx="66.5" ry="29.99" transform="translate(495.83 2293.43) rotate(-77.08)"/>
    <ellipse class="cls-4" cx="1789.33" cy="841.33" rx="66.5" ry="29.99" transform="translate(569.29 2397.31) rotate(-77.08)"/>
    <ellipse class="cls-1" cx="1698.5" cy="835" rx="15.5" ry="24"/>
    <ellipse class="cls-1" cx="1781.5" cy="841" rx="15.5" ry="24"/>
    <ellipse class="cls-2" cx="1644.5" cy="955" rx="108.5" ry="93"/>
    <path class="cls-5" d="M1550,981c32-2,151,5,170-51"/>
  </g>
</svg>