<?xml version="1.0" encoding="UTF-8"?>
<svg id="Layer_2" data-name="Layer 2" xmlns="http://www.w3.org/2000/svg" xmlns:xlink="http://www.w3.org/1999/xlink" viewBox="0 0 480.94 1116.49">
  <defs>
    <style>
      .cls-1 {
        fill: #1a3638;
      }

      .cls-1, .cls-2, .cls-3, .cls-4, .cls-5, .cls-6 {
        stroke-width: 0px;
      }

      .cls-7 {
        clip-path: url(#clippath-2);
      }

      .cls-2 {
        fill: #254b9c;
      }

      .cls-3, .cls-8 {
        fill: none;
      }

      .cls-9 {
        clip-path: url(#clippath-1);
      }

      .cls-10 {
        fill: #13b586;
        stroke: #0c8a83;
      }

      .cls-10, .cls-8 {
        stroke-miterlimit: 10;
        stroke-width: 10px;
      }

      .cls-11 {
        clip-path: url(#clippath);
      }

      .cls-4 {
        fill: #40bdea;
      }

      .cls-5 {
        fill: #0c8a83;
      }

      .cls-8 {
        stroke: #13b586;
        stroke-linecap: round;
      }

      .cls-6 {
        fill: #b2e0f5;
      }
    </style>
    <clipPath id="clippath">
      <path class="cls-3" d="M79.73,396.81s-60.78-168.65-13.17-253.29C114.18,58.89,212.36,8.53,341.61,83.43s14.75,308.84,14.75,308.84c0,0-230.38,141.26-276.63,4.55Z"/>
    </clipPath>
    <clipPath id="clippath-1">
      <path class="cls-3" d="M77.88,406.27s-60.85-173.02-13.27-259.82C112.19,59.66,210.36,8.04,339.64,84.92s14.88,316.8,14.88,316.8c0,0-230.32,144.81-276.63,4.55Z"/>
    </clipPath>
    <clipPath id="clippath-2">
      <path class="cls-3" d="M355.37,432.61c-12.16,9.65-23.1,15.18-27.53,16.54s-4.38,4.84-4.38,4.84c0,0,41.92-156.49,0,0-41.92,156.49,20.67,357.49,25.65,364.67s8.33,4.84,8.33,4.84c0,0,102,27.9,102.93,25.11,1-3,4-17,8.39-43.51,17.27-104.3-59.39-370.49-74.39-389.49-11.52-13.79-18.64-20.11-37.55-27.2-93.45-32.8-254.09,2.98-271.72,17.11,0,0-87.45,296.09-66.1,396.71,0,0,6.39,52.22,27.37,76.38,20.98,24.16,346.02,6.8,375.09-59.72"/>
    </clipPath>
  </defs>
  <g id="aboujt_me" data-name="aboujt me">
    <g id="maggie">
      <g id="Head">
        <g id="Beret">
          <path class="cls-10" d="M416.96,109.54l-.96-1.53c-1.99-3.18-1.1-7.36,2.02-9.45l31.68-21.16c2.74-1.83,5.84-.75,8.73.83,5.8,3.17,7.21,7.34,7.19,12.03-.02,3.61-.84,7.12-4.21,8.4l-36.13,13.67c-3.08,1.17-6.56,0-8.32-2.8Z"/>
          <path class="cls-5" d="M216.7,111.29C194.6,83.71,156.67-6.65,260.17.39c86.78,5.9,145.77,52.22,170.64,98.34,26.44,49.04,33.5,178.18-6.68,199.22s-97.15,14.04-97.15,14.04l-110.28-200.7Z"/>
        </g>
        <g id="head">
          <path class="cls-4" d="M79.73,396.81s-60.78-168.65-13.17-253.29C114.18,58.89,212.36,8.53,341.61,83.43s14.75,308.84,14.75,308.84c0,0-230.38,141.26-276.63,4.55Z"/>
        </g>
        <g id="Layer_17" data-name="Layer 17">
          <g class="cls-11">
            <path class="cls-6" d="M64.54,378.13c-.09-.39-.56-.84-.84-.83,8.74,4.68,18.25,7.78,27.93,9.96,41.79,9.23,85.16.18,124.4-15.07,29.73-11.36,58.87-24.99,86.64-40.44,2.4-1.39,4.76-2.76,6.96-4.16,1.04-.76,1.68-1.58,2.41-2.78,1.07-1.7,1.94-4.33,2.86-6.2,0,0,3.43-7.44,3.43-7.44,13.35-27.62,23.6-57.8,23.47-88.13.05-14.25-2.04-28.37-6.16-41.96-.44-1.39-1.01-2.92-1.57-4.27-9.43-20.03-31.54-30.7-51.87-38.53-19.22-7.1-39.61-11.74-59.98-14.97-25.11-3.84-50.64-5.97-76-5.16-5.44.26-10.75,1.19-16.13,2.26-33.52,7.16-66.51,18.38-99.23,29.18,0,0-3.86,1.28-3.86,1.28,0,0-.49.16-.49.16,0,0-.24.08-.24.08-.19.07.4-.14.55-.22,1.02-.46,1.74-1.05,2.18-1.51.88-.95.92-1.3.97-1.38-1.06,3.47-.87,7.92-.9,11.85.21,10.08,1.27,20.67,2.51,31.16,7.8,60.9,20.2,121.61,32.56,181.8.37,1.54,1.13,5.51,1.51,7.13.06.24-.08-.33-.17-.48-.21-.5-.55-.97-.96-1.31h0ZM55.42,385.92c-.97-1.27-1.45-3.04-1.77-4.5,0,0-.49-1.96-.49-1.96,0,0-.97-3.92-.97-3.92-14.69-60.34-29.04-120.66-38.69-182.11-1.6-10.99-3.08-21.79-3.59-33.03-.12-9.22-1.17-22.61,8.96-27.52,24.65-9.05,49.33-17.9,74.6-25.75,14.45-4.4,29.44-8.86,44.63-11.26,2.86-.41,6.17-.74,9.08-.86,54.66-1.94,127.66,5.48,175.25,34.17,14.55,8.96,27.99,21.52,34.79,37.7,1.02,2.2,1.74,4.8,2.51,7.11,7.88,27.12,7.92,56.49.91,83.71-5.97,24.47-17.6,46.99-29.33,68.8-2.28,4.45-4.46,9.11-8.36,12.58-1.45,1.36-3.14,2.59-4.9,3.53-21.91,11.47-44.57,20.77-67.66,29.36-20.37,7.44-41.23,14.06-62.39,18.92-31.98,7.73-65.21,8.15-97.63,3.25-10.23-1.5-20.49-3.47-30.56-6.03-1.53-.43-3.11-1.26-4.38-2.19h0Z"/>
          </g>
        </g>
        <g id="R_Eye">
          <g class="cls-9">
            <path class="cls-5" d="M137.29,151.32c-17.09-38.08-83.9-19.69-98.78,28.55-14.88,48.24-16.14,104.12-7.32,137.5s72.22,23.82,83.12-1.37c10.9-25.18,36.53-134.47,22.98-164.69Z"/>
            <path class="cls-1" d="M81.86,252.46c-5.77-13.58-8.87-33.29-2.31-56.2,6.13-21.39,25.53-28.95,30.61,5.58,1.56,10.61,2.01,37.96-3.31,51.73-5.32,13.77-19.22,12.48-24.99-1.11Z"/>
          </g>
        </g>
        <g id="R_Eyelash">
          <path class="cls-5" d="M126.53,149.41c2.3-10.42,9.98-38.35,6.1-43.03s-17.59,18.56-21,29.1"/>
          <path class="cls-5" d="M80.79,144.28c1.42-11.67,3.53-43.6,9.63-46.69,6.1-3.09,12.47,26.71,12.25,38.99"/>
          <path class="cls-5" d="M58.3,161.45c-3.07-12.26-13.24-45.14-8.31-50.58,4.94-5.45,22.81,22.01,27.31,34.43"/>
        </g>
        <g id="mouth">
          <path class="cls-2" d="M171,351.73c11.98-20.03,25.34-101.43-28.87-113.54-54.21-12.11-110.84,10.82-133.32,42.2-22.49,31.37,1.27,76.99,35.52,92.43,34.26,15.44,109.15,8.21,126.67-21.09Z"/>
          <path class="cls-4" d="M69.5,314.04c19.54,3.8,50.91-9.86,64.14-23.9,1-1.01,1.85-2.11,2.68-3.23,1.09-1.4,2.52-1.76,4.53-2.09,1.21-.2,2.66-.34,4.87-.38,0,0,1.44-.02,1.44-.02,6.67-.26,10.78,7.69,9.48,12.57-.55,2.68-2.39,4.57-3.96,6.49-1.62,1.9-3.36,3.64-5.18,5.2-19.61,16.81-49.51,19.69-73.87,15.43-2.08-.37-4.12-1.06-6.27-1.32-6.59-1.16-4.3-10.74,2.13-8.74h0Z"/>
        </g>
        <g id="L_Eye">
          <path class="cls-5" d="M186.21,260.55c-9.33-38.93-6.45-107.59,34.22-125.82,40.67-18.23,83.3,11.51,94.47,49.95,11.17,38.45,7.07,106.63-50.49,133.11-47.04,21.64-70.66-25.76-78.2-57.24Z"/>
          <path class="cls-1" d="M232.2,249.91c5.85-13.78,8.57-33.58.6-56.25-7.44-21.17-28.96-28.05-33.33,6.63-1.34,10.66-.89,38.01,5.41,51.59,6.3,13.58,21.47,11.81,27.33-1.97Z"/>
          <path class="cls-5" d="M208.74,145.65c-1.74-11.13-8.13-41.14-3.31-45.58,4.82-4.44,18.48,21.38,21.48,32.77"/>
          <path class="cls-5" d="M237.68,139.1c1.53-12.55,3.8-46.89,10.36-50.2,6.56-3.32,13.41,28.72,13.17,41.92"/>
          <path class="cls-5" d="M264.21,144.59c7.01-10.52,24.49-40.16,31.84-40.18,7.35-.01-.95,31.69-7.1,43.37"/>
        </g>
      </g>
      <g id="Tail">
        <path class="cls-4" d="M461.43,844.84s-.06.44-.18,1.27c-1.72,11.94-15.24,103.85-24.56,108.59-9.97,5.07-12.44,2.44-17.38,0s-17.29-15.57-17.29-15.57c0,0-9.88,15.02-12.35,16.89-2.47,1.88-4.94,1.88-7.41,0s-12.35-15.02-12.35-15.02c0,0-5.76,12.38-9.05,13.7s-4.94.56-6.58,0-13.99-9.94-13.99-9.94l-46.92-56.31s125.94-76.96,150.63-61.94"/>
      </g>
      <g id="R_Foot">
        <g id="foot">
          <path class="cls-2" d="M89.37,967.61c3,22,9,51,11,57,0,0-56,24-63,32s10.07,9.01,17,10,42-2,42-2c0,0-8,40-7,47s7,5,9,3,51-29,54-32c0,0,31.51,13.76,40,18,8,4,12,4,12-2s-2.83-54.56-6-62l18.92-75.46"/>
        </g>
        <g id="thigh">
          <path class="cls-6" d="M39.47,887.61c0,21,7.38,50,44.27,75s108.83,25,145.72-8,36.28-46,36.59-67-4.31-47-29.21-52-157.98-12.22-176.15,5c-16.76,15.88-22.14,28.16-21.21,47Z"/>
        </g>
      </g>
      <g id="L_Foot">
        <path id="foot-2" data-name="foot" class="cls-2" d="M258.37,973.61l18,69s-27,18-33,28,0,10,0,10c0,0,32,3,47,2,0,0,15,22,20,27s12,8,18,1c2.76-3.22,25-30,25-30,0,0,37,5,46,6s18-6,14-11-38-36-38-36l8-92"/>
        <path id="thigh-2" data-name="thigh" class="cls-6" d="M197.35,894.65c3.84,20.49,41.17,78.43,87.91,85.06,46.74,6.63,112.39-24.3,130.2-70.7,17.8-46.4,4.45-76.22,0-90.58-4.45-14.36-235.92-18.78-218.11,76.22Z"/>
      </g>
      <g id="Torso">
        <g id="apron">
          <g id="body">
            <path class="cls-4" d="M355.39,432.47c-12.15,9.62-23.09,15.12-27.53,16.48-4.44,1.36-4.38,4.83-4.38,4.83,0,0,41.86-156.01,0,0-41.86,156.01,20.79,356.43,25.78,363.59,4.99,7.16,8.34,4.83,8.34,4.83,0,0,102.01,27.86,102.94,25.07,1-2.99,3.99-16.95,8.37-43.38,17.23-103.98-59.52-369.41-74.53-388.35-11.52-13.76-18.64-20.06-37.56-27.13,0,0-225.45,135.87-271.7,16.97,0,0-87.34,295.18-65.96,395.51,0,0,6.41,52.06,27.4,76.16s346.01,6.9,375.05-59.41"/>
            <path class="cls-2" d="M422.52,504.25s51.6,176.26,46.97,258.21c-4.63,81.95-85.64,62.68-85.64,62.68l36.54-330.6"/>
            <g id="Layer_29" data-name="Layer 29">
              <g class="cls-7">
                <path class="cls-6" d="M317.39,857.15c-2.36-.93-5.57-1.56-6.7-3.95-.27-.71-.14-1.41-.24-2.17,0,0-.14-2.27-.14-2.27-1.36-17.47-5.23-49.54-7.18-67.45-8.57-74.85-15.54-157.82-33.15-230.79-7.56-31.14-16.06-62.5-30.59-91.14-5.68-10.61-12.43-22.12-22.51-28.6-25.76-14.55-65.67-14.29-94.66-11.23-24.25,4.4-48.12,16.88-63.74,36,0,0-7.25-6.89-7.25-6.89,10.18-9.18,21.51-16.6,33.55-22.32,12.06-5.65,24.82-10.11,38-12.11,31.37-3.33,69.13-4.98,97.98,9.82,6.44,3.64,11.29,8.78,15.57,14.08,8.36,10.61,14.59,22.48,20.23,34.6,11.07,23.99,19.32,49.05,26.6,74.36,14.33,50.42,24.23,102.17,31.57,154.04,6.37,45.23,12.99,90.38,18.14,135.8,0,0,.52,4.95.52,4.95,0,0,.47,5.04.47,5.04,0,0,.2,2.6.2,2.6.04.88.22,1.81.03,2.71-.55,1.91-1.88,3.32-3.73,4.42-.9.56-1.87,1.07-3,1.39,0,0-9.96-.91-9.96-.91h0Z"/>
                <path class="cls-6" d="M51.37,499.37c9.15-19.03,25.27-30.94,37-37.57,10.49-5.92,55.29-13.17,78-13.2,32.48-.04,54.27,60.92,74,107.62,18.66,44.16,60.42,217.37,60.44,259.92.02,43.9,120.84,20.17,121.56,27.46,1,10.15-56.2,42.42-58,43s-40,14.83-94,13.81-212.3,25.65-240.22.03c-34.03-31.23-45-263.34,21.22-401.07Z"/>
                <path class="cls-4" d="M110.37,544.61c0,4.12,6,6,7,4s0-5-2-6-5,1-5,2Z"/>
                <path class="cls-4" d="M102.37,626.61c-1,4,1,4,3,4s2.78-2,1.89-4-4.89,0-4.89,0Z"/>
                <path class="cls-4" d="M25.04,799.11c0,4.12,6,6,7,4s0-5-2-6-5,1-5,2Z"/>
                <path class="cls-4" d="M228.45,803.07c-1.52,6.08,1.52,6.08,4.56,6.08s4.22-3.04,2.87-6.08-7.44,0-7.44,0Z"/>
                <path class="cls-4" d="M93.04,703.72c-3.98,4.77.24,11.97,3.17,10.49s4.82-5.79,3.78-8.62-5.99-3.03-6.95-1.87Z"/>
              </g>
            </g>
          </g>
          <g id="actual_aprion" data-name="actual aprion">
            <path class="cls-5" d="M385.57,369.44c-5.21-4.08-12.25-4.85-18.22-2.02-35.05,16.66-122.86,41.61-181.95,43.83-50.3,1.89-94.84-8.19-111.87-12.69-3.99-1.05-7,1.87-8.74,5.65-26.79,58.52-95.51,386.63-36.09,467.81,1.52,2.08,2.47,4.51,4.94,5.21,20.3,5.77,109.66,27.61,156.92,28.33,53.08.82,121.08-10.46,172.56-29.03,43.91-15.84,94.77-37.07,108.79-42.98,2.32-.98,3.94-3.12,4.28-5.64l4.7-35.42c.67-5.08-4.01-9.19-8.89-7.8l-102.16,29.21c-3.57,1.02-7.31-.93-8.55-4.46-12.61-35.97-72.89-219.71-42.49-364.51.48-2.27,2.04-4.16,4.16-5.06,11.23-4.79,47.59-20.92,64.09-35.83.31-.28.59-.58.85-.91,10.37-13.17,9.57-24.4-2.3-33.71Z"/>
            <path class="cls-8" d="M29.06,774.52c52.18,11.56,60.4,12.43,98.77,16.91"/>
            <path class="cls-8" d="M209.2,790.67c24.88-1.7,90.67-9.92,105.7-11.92"/>
          </g>
        </g>
        <g id="L_arm">
          <path class="cls-4" d="M383.09,427.1c21.05,17.63,54.79,101.74,61.95,142.88,7.16,41.14,22.52,169.38,12.17,205.4-10.36,36.02-50.51,106.58-75.66,110.46-25.15,3.87-58.58-116.46-62.09-171.26,0,0-24.88-229.59,3.23-262.48"/>
        </g>
      </g>
    </g>
  </g>
</svg>