<?xml version="1.0" encoding="UTF-8"?>
<svg id="Layer_2" data-name="Layer 2" xmlns="http://www.w3.org/2000/svg" viewBox="0 0 474.89 756.51">
  <defs>
    <style>
      .cls-1 {
        fill: #1a3638;
      }

      .cls-1, .cls-2 {
        stroke: #1a3638;
        stroke-miterlimit: 10;
        stroke-width: 10px;
      }

      .cls-2, .cls-3 {
        fill: #b2e0f5;
      }

      .cls-3 {
        stroke-width: 0px;
      }
    </style>
  </defs>
  <g id="aboujt_me" data-name="aboujt me">
    <g id="zg">
      <g id="L_Arm">
        <path class="cls-2" d="M240.57,576.33s-1.2,129.04,7.81,139.75,66.81-106.6,81.65-163.38"/>
      </g>
      <g id="body">
        <path class="cls-2" d="M73.49,486.42c-21.72-47.57.39-303.94,27.09-383.09,26.7-79.15,180.63-159.25,290.72-30.55,110.09,128.7,40.48,436.63,40.48,436.63"/>
        <path class="cls-2" d="M71.29,396.83s-32.26-40.53-51.82-44.21c-19.55-3.67-49.29,271.91,139.86,290.21,189.15,18.31,236.01-41.23,236.01-41.23,0,0,106.36-58.37,64.99-246.71-26.61,5.89-49.44,22.94-69.67,47.63l-2-45.87c-31.03,14.55-94,70.53-109.25,91.9l-208.12-51.73Z"/>
        <path class="cls-2" d="M73.49,486.42c-21.72-47.57.39-303.94,27.09-383.09"/>
        <path class="cls-3" d="M111.87,410.37c-.14-2.97-.1-5.89.08-8.85.08-1.29.36-2.41,0-.49.32-1.75.68-3.47,1.1-5.19-11.79-1.6-23.57-3.19-35.36-4.79.61,6,1.42,11.99,2.52,17.92,1.63,8.79,11.59,13.99,19.75,12.89,8.93-1.2,15.36-8.64,15.61-17.68.07-2.75.15-5.5.22-8.24-11.79,1.6-23.57,3.19-35.36,4.79.49,2.17.6,2.4.34.7-.11,2.22-.02,2.48.28.78-1.37,9.27,2.3,19.8,12.57,22.14,8.63,1.96,20.57-2.63,22.14-12.57.91-5.76,2.19-11.41,3.84-17.01l-32.9,4.3c1.7,3.47.01-1.37.78,2.11.44,1.98,1.06,3.91,1.45,5.91.17.86.32,1.72.45,2.59-.2-1.59-.22-1.73-.06-.43.2,2.04.43,4.08.62,6.12.72,7.68,5.06,15.5,13.21,17.36,7.16,1.63,17.08-.87,20.33-8.27,4.15-9.45,8.3-18.9,12.45-28.35l-32.9-4.3c1.9,7.8,2.09,17.04.71,23.99-1.76,8.88,1.8,17.6,10.42,21.23,8.26,3.49,17.79.37,22.48-7.36,2.85-4.7,5.51-9.49,7.92-14.43,1.07-2.19,2.09-4.41,3.07-6.65s2.1-4.5,2.89-6.83c.47-1.1.47-1.13.01-.08-1.26,3.2-3.88,5.3-7.86,6.32h-9.57c-2.31-.75-4.2-2.01-5.68-3.78-.67-.58-1.11-1.32-1.31-2.21.52.12,1.29,3.76,1.43,4.23.97,3.14,1.67,6.32,2.32,9.54s.12-.51.22,1.42c.08,1.49.27,2.97.33,4.46.16,3.59.05,7.16-.23,10.74-.58,7.51,5.97,15.71,13.21,17.36,7.93,1.81,16.01-1.24,20.33-8.27,4.4-7.15,7.4-15.14,9.99-23.09,1.11-3.42,2.15-6.87,3.3-10.28.53-1.57,1.12-3.12,1.66-4.69.78-1.96.8-2.06.06-.29.93-1.74.68-1.47-.75.83l-7.94,4.63,1.04-.35h-9.57c-6.91-6.81-9.06-8.27-6.44-4.38l.8,1.41c.52.96,1.9,4.5.84,1.56,1.2,3.32,2.12,6.7,2.8,10.17.11.55.85,5.4.58,3.3s.26,2.82.31,3.38c.31,3.57.51,7.15.69,10.74.4,7.65,5.28,15.55,13.21,17.36,7.2,1.64,17.02-.89,20.33-8.27,2.68-5.99,5.37-11.98,8.05-17.97,1.21-2.7,2.42-5.39,3.62-8.09.67-1.5,1.33-3,2.01-4.49l.81-1.8c1.46-2.72.31-1.82-3.44,2.69l-26.44-10.76c1.55,3.87,2.83,7.81,3.81,11.87.49,2.02.9,4.07,1.26,6.12.16.88.3,1.76.43,2.65-.23-1.82-.21-1.64.05.56.8,8.4,1.13,16.8,1.33,25.24.41,17.38,24.65,25.11,33.54,9.08,3.66-6.59,5.92-13.74,7.86-20.98.77-2.87,1.52-5.75,2.48-8.56.56-1.64,1.84-3.74.36-1.09.42-.76,3.72-5.84,1.05-2.45-10.24-4.24-20.49-8.49-30.73-12.73.41,14.7.82,29.4,1.24,44.11.36,12.8,15.32,23.54,27.08,15.54,6.74-4.59,12.12-10.42,15.63-17.84,1.86-3.93,3.4-8.02,4.76-12.15.47-1.42.91-2.85,1.37-4.28.2-.61,2.2-6.04,1-3.25l-6.46,6.46c7-3.84,13.99-7.67,20.99-11.51-8.21-8.21-16.42-16.42-24.63-24.63-5.71,7.55-9.61,16.07-13.32,24.72-4.16,9.71-8.27,19.44-12.41,29.16,10.97,4.62,21.93,9.25,32.9,13.87,2.61-8.51,5.23-17.02,8.13-25.44,1.4-4.06,2.86-8.09,4.42-12.09.23-.59,2.41-5.92,1.32-3.35.96-2.25,1.99-4.48,3.02-6.69-11.18-3.03-22.36-6.06-33.54-9.08-.22,8.22-.44,16.45-1.06,24.65-.14,1.89-.3,3.78-.49,5.66-.03.3-.65,5.74-.25,2.73-.57,4.37-1.44,8.71-2.42,13.01,11.79,1.6,23.57,3.19,35.36,4.79.15-3.72.43-7.42.79-11.12.58-5.95-.62,3.32.32-2.59.29-1.84.6-3.67.95-5.49,1.4-7.31,3.35-14.47,5.73-21.52-11.57-3.19-23.14-6.38-34.71-9.57-1.36,5.11-2.89,10.17-4.67,15.15-.83,2.34-1.72,4.66-2.65,6.97-1.15,2.88.89-1.99-.35.85-.62,1.42-1.27,2.83-1.92,4.24,10.97,4.62,21.93,9.25,32.9,13.87,1.32-5.46,2.94-10.83,4.96-16.07.11-.29,1.39-3.38.77-1.95-.75,1.73,1.1-2.34,1.27-2.69,1.28-2.66,2.66-5.25,4.1-7.82-11.18-3.03-22.36-6.06-33.54-9.08-.02.63-.35,5.51.04,2.36-.25,2.07-.76,4.13-1.3,6.13-.47,1.73-1.01,3.44-1.66,5.11-.45,1.18-.42,1.12.07-.19-.51,1.08-1.06,2.13-1.65,3.17,10.97,4.62,21.93,9.25,32.9,13.87-1.36,3.27,1.44-2.81,1.73-3.37.78-1.5,1.6-2.98,2.46-4.43s1.76-2.88,2.7-4.28c.36-.53,4.33-5.78,2.2-3.12l-30.08-17.51c-3.72,12.37-8.07,24.53-13.04,36.45,11.57,3.19,23.14,6.38,34.71,9.57,1.04-7.54,2.96-14.76,5.69-21.87.47-1.19.42-1.04-.17.45.46-1.02.94-2.02,1.44-3.02.75-1.5,1.54-2.97,2.37-4.42,1.94-3.39,4.12-6.61,6.47-9.72l-32.9-4.3c-.32-1.13.1-2.32-.03-3.45-.64,1.75-.71,2.03-.21.83.61-1.41.41-.93-.6,1.45-1.14,2.7-2.23,5.43-3.33,8.15-.52,1.29-.9,1.97-.12.3-.47,1-.9,2.01-1.39,3-1.18,2.39-2.51,4.64-4.04,6.81-5.46,7.71-1.63,20.36,6.46,24.63,9.26,4.89,18.8,1.77,24.63-6.46,4.35-6.14,7-13.3,9.8-20.24.31-.77,2.08-5.23.6-1.59.99-2.42,2.19-4.79,2.93-7.31,1.51-5.11,1.47-10.59.03-15.69-1.95-6.91-7.92-11.95-14.96-12.89-7.69-1.03-13.45,2.63-17.94,8.59-10.27,13.66-17.1,30.27-19.42,47.19-1.27,9.28,2.24,19.79,12.57,22.14,10.52,2.4,18.25-3.24,22.14-12.57,4.97-11.93,9.32-24.08,13.04-36.45,2.2-7.33-1.39-16.69-8.27-20.33-6.54-3.46-16.74-3.51-21.81,2.81-7.8,9.73-13.55,19.58-18.35,31.08-3.44,8.25,3.06,18.13,10.42,21.23,7.96,3.36,18.19.56,22.48-7.36,5.86-10.85,8.98-22.43,9.42-34.75.63-17.92-24.92-24.41-33.54-9.08-6.54,11.62-11.59,24.17-14.72,37.13-2.12,8.77,2.06,17.71,10.42,21.23,7.59,3.2,18.7.78,22.48-7.36,5.37-11.58,9.93-23.47,13.22-35.81,2.42-9.09-3.04-19.97-12.57-22.14s-18.92,3.01-22.14,12.57c-5.47,16.2-8.37,33.21-9.08,50.29-.83,20.15,30.8,24.64,35.36,4.79,4.19-18.25,5.01-36.97,5.52-55.62.21-7.57-5.71-15.65-13.21-17.36s-16.89.92-20.33,8.27c-8.49,18.13-14.65,37.06-20.52,56.16-2.64,8.59,2.45,17.87,10.42,21.23,7.39,3.12,18.97.89,22.48-7.36,4.14-9.72,8.25-19.45,12.41-29.16,3.71-8.66,7.61-17.18,13.32-24.72,4.58-6.05,2.55-16.89-2.81-21.81-6.02-5.53-14.56-6.79-21.81-2.81-6.31,3.46-12.61,6.91-18.92,10.37-7.37,4.04-10.31,10.92-12.88,18.59-.76,2.27-1.44,4.57-2.22,6.83-.41,1.2-2.11,5.02-.57,1.84-.88,1.81-1.81,3.56-2.94,5.23,1.34-1.66,1.34-1.74,0-.23-1.5,1.36-1.42,1.33.22-.08,9.03,5.18,18.06,10.36,27.08,15.54-.41-14.7-.82-29.4-1.24-44.11-.2-7.25-4.36-13.62-11.06-16.45-6-2.53-15.27-1.86-19.66,3.72-5.7,7.25-9.43,14.79-11.98,23.66-.96,3.35-1.77,6.75-2.77,10.09-.43,1.42-.93,2.82-1.39,4.24-.74,1.92-.7,1.84.12-.22-.42.88-.88,1.75-1.37,2.6,11.18,3.03,22.36,6.06,33.54,9.08-.44-18.8-1.1-38.33-8.16-56-4.15-10.38-15.62-17.43-26.44-10.76-8,4.93-10.66,12.87-14.31,21.01-3.22,7.19-6.44,14.37-9.66,21.56,11.18,3.03,22.36,6.06,33.54,9.08-.54-10.34-1.21-20.89-3.75-30.97-2.84-11.21-9.09-26.98-21.73-29.83-9.19-2.07-18.78,1.89-23.42,10.27-2.64,4.76-4.43,10.28-6.14,15.44-1.48,4.46-2.8,8.97-4.36,13.41-.36,1.04-.75,2.07-1.13,3.1-.51,1.38-.85,1.9-.06.25-1.18,2.48-2.42,4.88-3.86,7.22,11.18,3.03,22.36,6.06,33.54,9.08.76-9.92-.12-20-2.32-29.7s-5.72-21.2-14.86-26.84c-6.38-3.94-14.75-4.2-21.31-.52-5.87,3.29-8.43,8.43-10.86,14.3-.82,2.01-.92,2.26-.3.77-.49,1.12-.99,2.23-1.5,3.34-.77,1.66-1.56,3.31-2.38,4.95-2.19,4.36-4.58,8.61-7.11,12.79,10.97,4.62,21.93,9.25,32.9,13.87,2.87-14.48,2.79-28.75-.71-43.13-1.69-6.92-8.15-11.98-14.96-12.89-6.43-.86-15.09,2.12-17.94,8.59-4.15,9.45-8.3,18.9-12.45,28.35,11.18,3.03,22.36,6.06,33.54,9.08-1.14-12.13-2.76-23.42-8.15-34.47-3.12-6.39-11.35-9.48-17.94-8.59-7.1.95-12.92,5.96-14.96,12.89-1.65,5.59-2.93,11.25-3.84,17.01,11.57,3.19,23.14,6.38,34.71,9.57,1.07-7.22,1.27-13.48-.62-20.62-2.29-8.68-11.07-14.06-19.75-12.89-8.93,1.2-15.36,8.64-15.61,17.68-.07,2.75-.15,5.5-.22,8.24,11.79-1.6,23.57-3.19,35.36-4.79-.35-1.86-.68-3.73-.96-5.6.44,2.99-.25-2.45-.28-2.74-.91-9.01-6.15-16.41-15.61-17.68-8.55-1.15-17.63,4.14-19.75,12.89-1.9,7.85-2.86,16.02-2.48,24.1.45,9.39,7.96,18.45,18,18,9.37-.42,18.48-7.93,18-18h0Z"/>
      </g>
      <g id="R_Arm">
        <path class="cls-2" d="M117.49,506.11c7.56-109.65-19.36,138.15,35.74,241.19,3.07,5.74,11.34,5.6,14.1-.31,16.2-34.65,59.12-127.49,68.1-157.19"/>
      </g>
      <g id="eyes">
        <path class="cls-1" d="M228.72,299.15c-10.77-42.06-3.03-126.09,13.21-153.16,16.24-27.08,48.14-28.3,59.73-1.47,11.59,26.83,29.4,119.76,9.88,161.78s-72.43,33.49-82.83-7.15Z"/>
        <path class="cls-1" d="M364.05,311.18c-10.22-29.03-7.39-139.19,8.95-165.1,16.35-25.91,43.95-25.48,51.36,4.43,7.42,29.91,7.06,129.41-14.21,164.65-21.27,35.24-41.86,8.1-46.11-3.98Z"/>
      </g>
    </g>
  </g>
</svg>